# xmcd CD database file
#
# Track frame offsets:
#	150
#	11658
#	23927
#	35809
#	45416
#	53905
#	66891
#	81570
#	90361
#	103158
#	112251
#	125460
#	137115
#	148330
#	162370
#	174771
#	185834
#	199052
#	214273
#	226573
#
# Disc length: 3180 seconds
#
# Revision: 0
# Processed by: cddbd v1.5.2PL0 Copyright (c) Steve Scherf et al.
# Submitted via: CDex 1.79
#
DISCID=240c6a14
DTITLE=Various Artist - Kings Of Country CD1
DYEAR=1900
DGENRE=Country
TTITLE0=Big River
TTITLE1=Your Cheating Heart
TTITLE2=Wabash Cannonball
TTITLE3=Six Days On The Road
TTITLE4=Slow Down Old World
TTITLE5=Frankie And Johnny
TTITLE6=Old Shep
TTITLE7=Jole Blon
TTITLE8=Since I Met You Baby
TTITLE9=I'm A One Woman Man
TTITLE10=Travelin' Blues
TTITLE11=San Antonio Rose
TTITLE12=Everybody's Truckin'
TTITLE13=Blue Monn Of Kentucky
TTITLE14=I'm Movin' On
TTITLE15=Oklahoma Hills
TTITLE16=Are You Tired Of Me My Darling?
TTITLE17=The Last Round Up
TTITLE18=Tonight I Think I'm Gonna Go Downtown
TTITLE19=Foggy Mountain Breakdown
EXTD=
EXTT0=
EXTT1=
EXTT2=
EXTT3=
EXTT4=
EXTT5=
EXTT6=
EXTT7=
EXTT8=
EXTT9=
EXTT10=
EXTT11=
EXTT12=
EXTT13=
EXTT14=
EXTT15=
EXTT16=
EXTT17=
EXTT18=
EXTT19=
PLAYORDER=
